<svg width="17" height="16" viewBox="0 0 17 16" fill="none" xmlns="http://www.w3.org/2000/svg">
  <path fill-rule="evenodd" clip-rule="evenodd" d="M0 1.99999C0 1.68173 0.126428 1.3765 0.351472 1.15146C0.576515 0.926416 0.88174 0.799988 1.2 0.799988H15.6C15.9183 0.799988 16.2235 0.926416 16.4485 1.15146C16.6736 1.3765 16.8 1.68173 16.8 1.99999C16.8 2.31825 16.6736 2.62347 16.4485 2.84852C16.2235 3.07356 15.9183 3.19999 15.6 3.19999H1.2C0.88174 3.19999 0.576515 3.07356 0.351472 2.84852C0.126428 2.62347 0 2.31825 0 1.99999Z" fill="#5A1100"/>
  <path fill-rule="evenodd" clip-rule="evenodd" d="M0 7.99999C0 7.68173 0.126428 7.3765 0.351472 7.15146C0.576515 6.92642 0.88174 6.79999 1.2 6.79999H15.6C15.9183 6.79999 16.2235 6.92642 16.4485 7.15146C16.6736 7.3765 16.8 7.68173 16.8 7.99999C16.8 8.31825 16.6736 8.62347 16.4485 8.84852C16.2235 9.07356 15.9183 9.19999 15.6 9.19999H1.2C0.88174 9.19999 0.576515 9.07356 0.351472 8.84852C0.126428 8.62347 0 8.31825 0 7.99999Z" fill="#5A1100"/>
  <path fill-rule="evenodd" clip-rule="evenodd" d="M0 14C0 13.6817 0.126428 13.3765 0.351472 13.1515C0.576515 12.9264 0.88174 12.8 1.2 12.8H15.6C15.9183 12.8 16.2235 12.9264 16.4485 13.1515C16.6736 13.3765 16.8 13.6817 16.8 14C16.8 14.3182 16.6736 14.6235 16.4485 14.8485C16.2235 15.0736 15.9183 15.2 15.6 15.2H1.2C0.88174 15.2 0.576515 15.0736 0.351472 14.8485C0.126428 14.6235 0 14.3182 0 14Z" fill="#5A1100"/>
</svg>
