<svg xmlns="http://www.w3.org/2000/svg" fill="none" viewBox="0 0 16 18"><path fill="#fff" d="M13.662 3.3A7.89 7.89 0 008.03.964C3.643.964.068 4.538.064 8.926c0 1.405.368 2.772 1.062 3.983L0 17.036l4.223-1.107a7.97 7.97 0 003.807.97h.004c4.388 0 7.962-3.575 7.966-7.966A7.933 7.933 0 0013.662 3.3zM8.03 15.55a6.602 6.602 0 01-3.371-.924l-.241-.144-2.505.657.669-2.444-.157-.252a6.59 6.59 0 01-1.012-3.521c0-3.643 2.97-6.614 6.621-6.614a6.59 6.59 0 014.681 1.94 6.587 6.587 0 011.937 4.68c-.004 3.656-2.974 6.622-6.622 6.622zm3.632-4.956c-.198-.1-1.176-.58-1.36-.649-.182-.065-.316-.1-.447.1-.133.198-.515.649-.63.778-.114.134-.233.149-.431.05-.198-.1-.84-.309-1.6-.989-.592-.527-.99-1.18-1.108-1.378-.114-.2-.01-.306.089-.405.087-.088.198-.233.297-.348.1-.114.134-.198.199-.331.065-.135.034-.25-.015-.349-.05-.1-.447-1.08-.615-1.476-.16-.391-.324-.337-.447-.342-.114-.007-.248-.007-.382-.007a.732.732 0 00-.53.248c-.184.2-.695.68-.695 1.662 0 .981.713 1.924.814 2.058.098.134 1.4 2.142 3.398 3.006.472.205.844.327 1.134.42.477.152.908.129 1.252.08.381-.058 1.176-.482 1.344-.947.164-.467.164-.864.114-.948-.049-.084-.183-.133-.381-.233z"/></svg>
